<svg xmlns="http://www.w3.org/2000/svg" viewBox="0 0 359.98 88.98">
  <path fill="#ccd6ed" fill-rule="evenodd" d="M340.59,20.12a2.5,2.5,0,1,1-4.18,2.76,2.6,2.6,0,0,1-.36-.88H183A2.5,2.5,0,0,1,181,24v18.1a2.5,2.5,0,1,1-1,0V24A2.5,2.5,0,0,1,178.05,22H24a2.5,2.5,0,1,1-4.9-1,2.6,2.6,0,0,1,.36-.88L0,.72.72,0l19.4,19.4a2.5,2.5,0,0,1,3.47.72A2.47,2.47,0,0,1,24,21h154.1a2.5,2.5,0,0,1,4.9,0h153.1A2.5,2.5,0,0,1,339,19.05a2.72,2.72,0,0,1,.88.36L359.28,0l.71.71-19.4,19.4Z" transform="translate(-0.01 -0.01)"/>
  <path fill="#0b4cd1" fill-rule="evenodd" d="M360,88.28l-.71.71-19.4-19.4a2.5,2.5,0,0,1-3.47-.72,2.47,2.47,0,0,1-.36-.87H183a2.5,2.5,0,0,1-4.9,0H24A2.5,2.5,0,0,1,21,70a2.72,2.72,0,0,1-.88-.36L.72,89,0,88.28l19.4-19.4a2.5,2.5,0,1,1,4.18-2.76A2.6,2.6,0,0,1,24,67h154.1a2.5,2.5,0,0,1,1.95-2V47a2.5,2.5,0,1,1,1,0v18.1A2.5,2.5,0,0,1,183,67h153.1a2.5,2.5,0,1,1,4.9,1,2.6,2.6,0,0,1-.36.88Z" transform="translate(-0.01 -0.01)"/>
</svg>
