<svg xmlns="http://www.w3.org/2000/svg" width="127" height="146">
    <path fill="#0B4CD1" fill-rule="evenodd" d="M104 124l-40-23-13 7v-9l13-7 40 23 15-9V88l-12-7 7-5 13 8v26l-23 14zm3-29a6 6 0 1 1-12 0 6 6 0 0 1 12 0zm-20 3l-7-4V81l39-23V41l-15-10-13 8v-9l13-7 23 13v26L87 86v12zm14-54a6 6 0 1 1 0 12 6 6 0 0 1 0-12zm-8.767 27.008L80 63V18L64.398 8.892l-15.531 8.961-.061 13.831-7.802-3.547L41 13 63.864.003 88 13v46l11.998 7.528-7.765 4.48zM58 28a6 6 0 1 1 12 0 6 6 0 0 1-12 0zm18 10v9l-13 7-40-23-15 9v18l12 7-7 5-13-8V36l23-14 40 23 13-7zM16 50a6 6 0 1 1 12 0 6 6 0 0 1-12 0zm24-2l7 4v13L8 88v17l15 10 13-8v9l-13 7-23-13V84l40-24V48zm-18 53a6 6 0 1 1 0-12 6 6 0 0 1 0 12zm35 17a6 6 0 1 1 12 0 6 6 0 0 1-12 0zM33.767 74.992L46 83v45l15.602 9.108 15.531-8.961.061-13.831 7.802 3.546L85 133l-22.864 12.997L38 133V87l-11.998-7.528 7.765-4.48z"/>
</svg>
