<svg xmlns="http://www.w3.org/2000/svg" viewBox="0 0 47 250">
    <path fill-rule="evenodd" d="M47.47,247H5A2.5,2.5,0,0,0,3,245.05V127a2.5,2.5,0,0,0,2-2h18.1A2.5,2.5,0,0,0,25,127v74.1a2.29,2.29,0,0,0-.88.37,2.5,2.5,0,1,0,2.76,4.17L46.28,225l.71-.71-19.4-19.4A2.51,2.51,0,0,0,26,201.05V127a2.5,2.5,0,0,0,0-4.9V49a2.6,2.6,0,0,0,.88-.36,2.51,2.51,0,0,0,.71-3.47L47,25.72,46.28,25l-19.4,19.4a2.82,2.82,0,0,0-.88-.36A2.5,2.5,0,0,0,25,49v73.1a2.5,2.5,0,0,0-1.95,2H5a2.5,2.5,0,0,0-1.95-2V5A2.5,2.5,0,0,0,5,3H47.47V2.77c0-.26,0-.51,0-.77H5A2.5,2.5,0,1,0,2,5v117.1A2.5,2.5,0,0,0,2,127v118.1A2.5,2.5,0,1,0,5,248H47.47Z"/>
</svg>
