<svg xmlns="http://www.w3.org/2000/svg" viewBox="0 0 47 250">
    <path fill-rule="evenodd" d="M45.18,245.05V127a2.5,2.5,0,0,0,0-4.9V5a2.5,2.5,0,1,0-3-2.95H0V3H42.23a2.5,2.5,0,0,0,2,2v117.1a2.5,2.5,0,0,0-2,2H24.13a2.5,2.5,0,0,0-1.95-2V49a2.36,2.36,0,0,0,.88-.37,2.5,2.5,0,1,0-2.76-4.17L.89,25l-.7.71,19.4,19.4a2.6,2.6,0,0,0-.36.88,2.5,2.5,0,0,0,1.95,3v73.1a2.5,2.5,0,0,0,0,4.9v74.1a2.51,2.51,0,0,0-1.59,3.83L.19,224.28l.7.71L20.3,205.58a2.43,2.43,0,0,0,.88.37,2.5,2.5,0,0,0,1-4.9V127a2.5,2.5,0,0,0,1.95-2h18.1a2.5,2.5,0,0,0,2,2v118.1a2.5,2.5,0,0,0-2,1.95H0v1H42.23a2.5,2.5,0,1,0,3-2.95Z"/>
</svg>
